<?xml version="1.0" encoding="UTF-8" standalone="no"?>
<!-- Created with Inkscape (http://www.inkscape.org/) -->

<svg
   width="180"
   height="180"
   viewBox="0 0 180 180"
   version="1.1"
   id="svg1"
   xml:space="preserve"
   inkscape:version="1.4 (86a8ad7, 2024-10-11)"
   sodipodi:docname="logo.svg"
   inkscape:export-filename="logo.png"
   inkscape:export-xdpi="96"
   inkscape:export-ydpi="96"
   xmlns:inkscape="http://www.inkscape.org/namespaces/inkscape"
   xmlns:sodipodi="http://sodipodi.sourceforge.net/DTD/sodipodi-0.dtd"
   xmlns="http://www.w3.org/2000/svg"
   xmlns:svg="http://www.w3.org/2000/svg"><sodipodi:namedview
     id="namedview1"
     pagecolor="#ffffff"
     bordercolor="#666666"
     borderopacity="1.0"
     inkscape:showpageshadow="2"
     inkscape:pageopacity="0.0"
     inkscape:pagecheckerboard="0"
     inkscape:deskcolor="#d1d1d1"
     inkscape:document-units="px"
     inkscape:zoom="7.1299934"
     inkscape:cx="103.99729"
     inkscape:cy="87.37736"
     inkscape:window-width="2404"
     inkscape:window-height="1455"
     inkscape:window-x="4258"
     inkscape:window-y="219"
     inkscape:window-maximized="0"
     inkscape:current-layer="layer1" /><defs
     id="defs1" /><g
     inkscape:label="Ebene 1"
     inkscape:groupmode="layer"
     id="layer1"><path
       id="rect303600"
       style="fill:#ec8551;fill-opacity:1;stroke:none;stroke-width:1.14381;stroke-linecap:round;stroke-dasharray:none;stroke-opacity:1"
       d="m 103.7929,28.530369 a 10.856744,12.04483 0 0 0 -0.78562,0.06191 H 16.646534 a 10.856744,12.04483 0 0 0 -1.065286,-0.05978 10.856744,12.04483 0 0 0 -10.8578034,12.044775 10.856744,12.04483 0 0 0 10.8578034,12.044775 10.856744,12.04483 0 0 0 0.751464,-0.05978 v 0.02135 h 87.007598 a 10.856744,12.04483 0 0 0 0.45259,0.03629 10.856744,12.04483 0 0 0 10.8578,-12.044776 10.856744,12.04483 0 0 0 -10.8578,-12.044775 z" /><path
       id="rect303600-1"
       style="fill:#203144;fill-opacity:1;stroke:none;stroke-width:1.14381;stroke-linecap:round;stroke-dasharray:none;stroke-opacity:1"
       d="m 137.88993,75.284094 c -29.04232,0.132091 -79.908461,0.342415 -108.955636,0.342415 -0.353998,-0.03928 -0.709522,-0.05923 -1.065286,-0.05978 -5.996408,-6.49e-4 -10.857776,5.392162 -10.857803,12.044775 2.7e-5,6.652613 4.861395,12.045421 10.857803,12.044771 0.251036,-0.0103 0.501675,-0.0302 0.751464,-0.0598 v 0.0213 L 137.43734,99.337344 c 0.15062,0.01559 0.30152,0.02769 0.45259,0.03629 5.99641,6.47e-4 10.85777,-5.392164 10.8578,-12.044776 -3e-5,-6.652612 -4.86139,-12.045422 -10.8578,-12.044775 -1e-5,0 0,1.1e-5 0,1.1e-5 z"
       sodipodi:nodetypes="scccccccccss" /><path
       id="rect303600-1-0"
       style="fill:#ec8551;fill-opacity:1;stroke:none;stroke-width:1.14381;stroke-linecap:round;stroke-dasharray:none;stroke-opacity:1"
       d="m 164.20549,29.01682 c -29.04233,0.132091 -6.55638,-0.07834 -35.60355,-0.07834 -0.354,-0.03928 -0.70952,-0.05923 -1.06528,-0.05978 -5.99641,-6.49e-4 -10.85778,5.392162 -10.85781,12.044775 3e-5,6.652613 4.8614,12.045424 10.85781,12.044775 0.25103,-0.01028 0.50167,-0.03021 0.75146,-0.05978 v 0.02135 l 35.46478,0.140253 c 0.15062,0.01559 0.30152,0.02769 0.45259,0.03629 5.99641,6.47e-4 10.85777,-5.392164 10.8578,-12.044776 -3e-5,-6.652612 -4.86139,-12.045422 -10.8578,-12.044775 -1e-5,0 0,1.1e-5 0,1.1e-5 z"
       sodipodi:nodetypes="scccccccccss" /><path
       id="rect303600-7"
       style="fill:#ec8551;fill-opacity:1;stroke:none;stroke-width:1.14381;stroke-linecap:round;stroke-dasharray:none"
       d="m 152.23538,122.3184 c -0.26246,0.01 -0.52451,0.0307 -0.78562,0.0619 H 71.067774 c -0.353998,-0.0392 -0.709522,-0.0592 -1.065285,-0.0598 -5.996409,-6.4e-4 -10.857777,5.39216 -10.857804,12.04478 2.7e-5,6.65261 4.861395,12.04542 10.857804,12.04477 0.251036,-0.01 0.501675,-0.0303 0.751464,-0.0598 v 0.0213 H 151.7828 c 0.15062,0.0156 0.30151,0.0276 0.45258,0.0363 5.99641,6.5e-4 10.85778,-5.39215 10.85781,-12.04477 -3e-5,-6.65261 -4.8614,-12.04543 -10.85781,-12.04477 z"
       sodipodi:nodetypes="ccccccccccccc" /></g></svg>
